<svg width="32" height="32" viewBox="0 0 32 32" xmlns="http://www.w3.org/2000/svg">
  <!-- Designer mascot-inspired favicon -->
  <rect width="32" height="32" fill="#ffffff"/>
  
  <!-- Simple pixel art designer character -->
  <rect x="8" y="6" width="16" height="4" fill="#333333"/> <!-- Hair -->
  <rect x="10" y="8" width="2" height="2" fill="#808080"/> <!-- Gray hair -->
  <rect x="14" y="8" width="2" height="2" fill="#808080"/> <!-- Gray hair -->
  <rect x="18" y="8" width="2" height="2" fill="#808080"/> <!-- Gray hair -->
  
  <rect x="8" y="10" width="16" height="8" fill="#FDBCB4"/> <!-- Head -->
  <rect x="11" y="13" width="2" height="1" fill="#000000"/> <!-- Left eye -->
  <rect x="19" y="13" width="2" height="1" fill="#000000"/> <!-- Right eye -->
  
  <rect x="10" y="16" width="12" height="2" fill="#333333"/> <!-- Beard -->
  <rect x="12" y="16" width="2" height="2" fill="#808080"/> <!-- Gray beard -->
  <rect x="18" y="16" width="2" height="2" fill="#808080"/> <!-- Gray beard -->
  
  <rect x="8" y="18" width="16" height="8" fill="#000000"/> <!-- T-shirt -->
  <rect x="8" y="26" width="16" height="6" fill="#4169E1"/> <!-- Jeans -->
  
  <!-- Design tool (stylus) -->
  <rect x="4" y="20" width="2" height="6" fill="#EBC533"/> <!-- Yellow stylus -->
  <rect x="4" y="20" width="2" height="1" fill="#D66422"/> <!-- Orange tip -->
</svg>
