<svg width="400" height="300" xmlns="http://www.w3.org/2000/svg">
  <rect width="100%" height="100%" fill="#C8C8BC"/>
  <!-- Nonprofit/charity placeholder -->
  <circle cx="200" cy="120" r="60" fill="#EBC533" opacity="0.8"/>
  <circle cx="200" cy="120" r="40" fill="#D66422" opacity="0.9"/>
  <!-- Heart shape -->
  <path d="M200,140 C195,130 180,130 180,145 C180,155 200,170 200,170 C200,170 220,155 220,145 C220,130 205,130 200,140 Z" fill="#ffffff"/>
  
  <!-- Helping hands -->
  <circle cx="150" cy="180" r="15" fill="#333333" opacity="0.6"/>
  <rect x="145" y="185" width="10" height="20" fill="#333333" opacity="0.6"/>
  
  <circle cx="250" cy="180" r="15" fill="#333333" opacity="0.6"/>
  <rect x="245" y="185" width="10" height="20" fill="#333333" opacity="0.6"/>
  
  <!-- Connection lines -->
  <line x1="165" y1="185" x2="185" y2="145" stroke="#808080" stroke-width="2"/>
  <line x1="235" y1="185" x2="215" y2="145" stroke="#808080" stroke-width="2"/>
  
  <text x="50%" y="90%" font-family="Arial" font-size="16" fill="#333333" text-anchor="middle">Nonprofit Campaign</text>
</svg>
