<svg width="400" height="300" xmlns="http://www.w3.org/2000/svg">
  <rect width="100%" height="100%" fill="#C8C8BC"/>
  <!-- Social campaign placeholder -->
  <!-- Social media post mockups -->
  <rect x="60" y="50" width="80" height="80" fill="#EBC533" rx="8"/>
  <circle cx="85" cy="70" r="8" fill="#333333"/>
  <rect x="70" y="85" width="30" height="3" fill="#333333"/>
  <rect x="70" y="95" width="25" height="2" fill="#808080"/>
  <rect x="70" y="105" width="35" height="2" fill="#808080"/>
  <rect x="70" y="115" width="20" height="2" fill="#808080"/>
  
  <rect x="160" y="50" width="80" height="80" fill="#D66422" rx="8"/>
  <circle cx="185" cy="70" r="8" fill="#ffffff"/>
  <rect x="170" y="85" width="30" height="3" fill="#ffffff"/>
  <rect x="170" y="95" width="25" height="2" fill="#ffffff"/>
  <rect x="170" y="105" width="35" height="2" fill="#ffffff"/>
  
  <rect x="260" y="50" width="80" height="80" fill="#333333" rx="8"/>
  <circle cx="285" cy="70" r="8" fill="#EBC533"/>
  <rect x="270" y="85" width="30" height="3" fill="#EBC533"/>
  <rect x="270" y="95" width="25" height="2" fill="#808080"/>
  <rect x="270" y="105" width="35" height="2" fill="#808080"/>
  
  <!-- Engagement metrics -->
  <rect x="100" y="160" width="200" height="60" fill="#ffffff" rx="4"/>
  <rect x="120" y="180" width="40" height="8" fill="#EBC533"/>
  <rect x="120" y="195" width="60" height="8" fill="#D66422"/>
  <rect x="120" y="210" width="30" height="8" fill="#333333"/>
  
  <text x="50%" y="90%" font-family="Arial" font-size="16" fill="#333333" text-anchor="middle">Social Campaign</text>
</svg>
