<svg width="400" height="300" xmlns="http://www.w3.org/2000/svg">
  <rect width="100%" height="100%" fill="#C8C8BC"/>
  <!-- Icons placeholder -->
  <circle cx="120" cy="100" r="25" fill="#EBC533"/>
  <rect x="105" y="85" width="30" height="4" fill="#333333" rx="2"/>
  <rect x="105" y="93" width="30" height="4" fill="#333333" rx="2"/>
  <rect x="105" y="101" width="20" height="4" fill="#333333" rx="2"/>
  
  <rect x="180" y="75" width="50" height="50" fill="#D66422" rx="8"/>
  <circle cx="205" cy="90" r="8" fill="#ffffff"/>
  <rect x="190" y="105" width="30" height="4" fill="#ffffff" rx="2"/>
  <rect x="195" y="113" width="20" height="4" fill="#ffffff" rx="2"/>
  
  <polygon points="280,75 305,90 280,105 255,90" fill="#333333"/>
  <circle cx="280" cy="90" r="8" fill="#EBC533"/>
  
  <rect x="110" y="150" width="40" height="40" fill="#808080" rx="6"/>
  <circle cx="130" cy="165" r="6" fill="#ffffff"/>
  <rect x="123" y="175" width="14" height="2" fill="#ffffff"/>
  
  <circle cx="200" cy="170" r="20" fill="#EBC533"/>
  <rect x="190" y="165" width="20" height="3" fill="#333333"/>
  <rect x="192" y="172" width="16" height="3" fill="#333333"/>
  
  <text x="50%" y="90%" font-family="Arial" font-size="16" fill="#333333" text-anchor="middle">Icon Design Set</text>
</svg>
