<?xml version="1.0" encoding="UTF-8" standalone="no"?>
<!DOCTYPE svg PUBLIC "-//W3C//DTD SVG 1.1//EN" "http://www.w3.org/Graphics/SVG/1.1/DTD/svg11.dtd">
<svg width="100%" height="100%" viewBox="0 0 6000 1250" version="1.1" xmlns="http://www.w3.org/2000/svg" xmlns:xlink="http://www.w3.org/1999/xlink" xml:space="preserve" xmlns:serif="http://www.serif.com/" style="fill-rule:evenodd;clip-rule:evenodd;stroke-linejoin:round;stroke-miterlimit:2;">
    <g id="Layer-1" serif:id="Layer 1" transform="matrix(4.16667,0,0,4.16667,0,-1667.35)">
        <g transform="matrix(1,0,0,1,1160.17,672.723)">
            <path d="M0,273.88C0,291.63 -1.17,309.1 -3.17,326.24L-3.17,326.28C-3.9,327.06 -4.15,327.87 -4.17,328.66C-4.23,328.19 -4.29,327.71 -4.35,327.23L-4.39,327.28L-4.4,327.28L-274.35,352.28L-274.36,352.28L-274.4,352.29L-277.93,352.82L-278.22,353L-529.19,377.28L-529.26,377.28L-550.73,379.28L-550.75,379.28L-782.48,401.42L-782.51,401.32C-782.51,401.31 -782.52,401.29 -782.52,401.28C-795.91,361.24 -803.17,318.44 -803.17,273.9C-803.17,190.69 -777.85,113.39 -734.5,49.29C-734.5,49.29 -734.37,49.28 -734.36,49.28C-722.12,31.16 -708.27,14.11 -693.33,-1.72L-693.17,-1.72L-693.17,-1.89C-693.22,-1.83 -693.28,-1.78 -693.33,-1.72L-693.43,-1.72C-693.42,-1.72 -693.41,-1.77 -693.39,-1.77C-651.53,-45.75 -599.73,-80.85 -541.53,-102.47C-541.49,-102.48 -541.45,-102.5 -541.41,-102.52C-497.9,-118.68 -450.83,-127.54 -401.7,-127.54C-352.88,-127.54 -306.09,-118.85 -262.82,-102.9C-262.81,-102.9 -262.8,-102.89 -262.79,-102.89C-207.78,-82.61 -158.45,-50.65 -117.79,-9.99L-117.78,-9.98L-117.74,-9.97C-99.63,8.15 -83.2,27.98 -68.81,49.28C-68.8,49.28 -68.575,49.29 -68.575,49.29C-34.835,99.14 -12.17,156.97 -3.17,219.38L-3.17,219.39C-3.17,219.49 -3.185,219.59 -3.175,219.69C-3.155,219.8 -3.19,219.9 -3.17,220.01L-3.17,220.02C-3.17,220.03 -3.26,220.03 -3.26,220.04C-3.2,220.45 -3.23,220.87 -3.17,221.28L-3.17,221.29C-3.17,221.42 -3.32,221.56 -3.3,221.69C-1.07,238.77 0,256.19 0,273.88" style="fill:rgb(200,200,188);fill-rule:nonzero;"/>
        </g>
        <g transform="matrix(1,0,0,1,1440,993.963)">
            <path d="M0,-381.82L0,-21.69L-18.8,-19.86L-19,-20.02L-19,-20.04L-18.86,-20.06L-283,5L-283,5.04C-283.09,5.14 -283.18,5.24 -283.25,5.33C-283.67,5.87 -283.88,6.41 -283.96,6.95C-283.98,7.11 -284,7.27 -284,7.42C-284.06,6.96 -284.12,6.5 -284.17,6.03C-284.18,6.02 -284.18,6 -284.18,5.99L-284.22,6.04L-284.23,6.04L-554.18,31.04L-554.19,31.04L-554.23,31.05C-554.67,26.9 -555.04,22.74 -555.35,18.56C-556.08,8.69 -556.45,-1.29 -556.45,-11.35C-556.45,-31.71 -554.93,-51.72 -552,-71.27L-552,-71.3C-540.63,-147.22 -508.01,-216.19 -460.37,-271.96C-441.65,-293.88 -420.61,-313.77 -397.62,-331.23C-352.8,-365.28 -300.61,-390.13 -243.85,-402.95C-215.26,-409.42 -185.52,-412.87 -154.97,-412.87C-124.3,-412.87 -94.44,-408.96 -65.74,-402.96L-65.73,-402.96C-43.02,-397.96 -21.06,-390.64 0,-381.82" style="fill:rgb(200,200,188);fill-rule:nonzero;"/>
        </g>
        <g transform="matrix(1,0,0,1,335.08,613.183)">
            <path d="M0,464.95C0,464.94 0.01,464.92 0.01,464.91L0.19,464.85L0.29,464.82L0.4,464.82L42.56,460.82L42.57,460.82C42.57,460.83 42.58,460.85 42.58,460.86L42.61,460.96L274.34,438.82L273.92,438.82L273.92,438.8C277.92,415.81 280.09,393.1 280.09,369.52C280.09,270.1 244.07,179.12 184.22,109C184.19,108.97 184.215,108.93 184.185,108.89C184.175,108.87 184.183,108.88 184.173,108.86C184.163,108.85 184.166,108.83 184.156,108.82C168.276,90.25 150.723,73.23 131.753,57.82C131.733,57.8 131.717,57.79 131.697,57.77C131.677,57.77 131.67,57.82 131.66,57.82L131.65,57.82C85.52,19.82 30.94,-7.19 -28.81,-21.18L-28.82,-21.18C-28.9,-21.2 -28.99,-21.22 -29.07,-21.24C-58.64,-28.2 -89.47,-31.96 -121.16,-31.96C-149.35,-31.96 -176.86,-29.18 -203.4,-23.65C-170.82,-7.64 -140.73,12.64 -113.87,36.48C-138.03,57.91 -159.58,81.82 -177.99,108.82L-335.08,108.82L-335.08,496.91L-220.3,485.97L-220.16,485.86L-220.12,485.82L-220.08,485.82L-77.62,472.22L-36.34,468.3L-14.13,466.19L-0.1,464.845L-0.09,464.82L-0.08,464.82L-0.08,464.97L0,464.95Z" style="fill:rgb(200,200,188);fill-rule:nonzero;"/>
        </g>
        <g transform="matrix(1,0,0,1,888,724.983)">
            <path d="M0,197.71L0,197.6C0,197.54 0.01,197.5 0,197.44L0,197.43C0,197.28 0.02,197.14 0,196.99L0,196.98C-5,123.05 -30.18,54.61 -69.93,-2.91C-69.94,-2.93 -69.94,-2.96 -69.94,-2.98C-69.94,-3.01 -69.94,-3.04 -69.96,-3.06C-88.04,-29.22 -109.14,-53.2 -132.77,-74.33C-132.8,-74.36 -132.83,-74.38 -132.86,-74.41C-172.14,-109.55 -218.37,-136.78 -269.24,-154.78C-269.28,-154.79 -269.32,-154.81 -269.36,-154.82C-269.51,-154.88 -269.65,-154.93 -269.8,-154.98L-269.81,-154.98C-310.75,-168.98 -354.67,-176.55 -400.39,-176.55C-465.65,-176.55 -527.26,-160.81 -581.73,-133.18C-581.73,-133.17 -581.74,-133.17 -581.74,-133.17C-581.82,-133.13 -581.91,-133.09 -581.99,-133.04C-612.74,-117.43 -641.21,-97.97 -666.76,-75.29C-666.77,-75.28 -666.78,-75.27 -666.79,-75.26C-690.92,-53.86 -712.44,-29.59 -730.83,-2.98C-730.86,-2.94 -730.88,-2.91 -730.91,-2.87C-775.66,61.88 -801.76,140.42 -801.76,225.09C-801.76,277.72 -792.03,327.97 -773.1,374.02C-773.09,374.03 -773.09,374.05 -773.08,374.06C-773.06,374.11 -773.04,374.16 -773.02,374.21C-773.01,374.23 -773.01,374.24 -773,374.26L-757.41,372.76L-553,353.12L-553,353.17L-552.97,353.1L-552.93,353.02L-552.85,353.03L-552.73,353.05L-552.63,353.07C-552.62,353.03 -552.57,353.06 -552.56,353.02L-552.54,353.02L-510.36,349.02C-510.36,349.03 -510.35,349.05 -510.35,349.06L-510.31,349.16L-278.58,327.02L-279,327.02L-279,326.99L-278.78,327.02L-278.56,327L-257.09,325.02L-257.02,325.02L-6.05,300.74L-5.76,300.56C-4.95,296.25 -4.19,291.91 -3.35,287.54C-3.24,286.94 -3.12,286.33 -3,285.73L-3,285.71C0,265.95 1.23,245.69 1.23,225.09C1.23,215.88 1,206.76 0,197.71" style="fill:rgb(51,51,51);fill-rule:nonzero;"/>
        </g>
        <g transform="matrix(1,0,0,1,131.68,604.363)">
            <path d="M0,-14.8C-47.51,-4.91 -91.95,13.38 -131.68,38.45L-131.68,-39.364C-84.89,-47.304 -40.52,-34.72 0,-14.8" style="fill:rgb(51,51,51);fill-rule:nonzero;"/>
        </g>
        <g transform="matrix(1,0,0,1,356.28,749.553)">
            <path d="M0,200.52C0,245.25 -7.32,288.27 -20.82,328.45C-20.83,328.49 -20.85,328.53 -20.86,328.57L-21.19,328.6L-21.29,328.485L-241.28,349.45L-241.32,349.45L-241.5,349.595L-356.28,360.54L-356.28,-134.217L-224.6,-160.02C-196.28,-145.05 -182.447,-138.883 -135.07,-99.89L-135.04,-99.86C-110.92,-78.45 -89.4,-54.15 -71.02,-27.55C-71,-27.52 -70.98,-27.5 -70.96,-27.47C-26.21,37.28 0,115.85 0,200.52" style="fill:rgb(51,51,51);fill-rule:nonzero;"/>
        </g>
        <g transform="matrix(1,0,0,1,1441,594.163)">
            <path d="M-0.988,378.068L-1.001,-29.164C-24.191,-22.364 -45.5,-14.16 -66.73,-3.16L-66.74,-3.16C-98.79,12.84 -128.36,33.25 -154.79,56.96L-154.8,57.02C-178.26,78.07 -199.19,101.84 -217.17,127.84C-251.56,177.56 -275,235.42 -284,297.94L-284,297.95C-284,298 -284,298.04 -284.01,298.09C-284.01,298.1 -284,298.11 -284.01,298.12C-284,298.16 -284,298.21 -284.01,298.25C-284.03,298.37 -284.05,298.48 -284.06,298.6C-284.07,298.64 -284.08,298.67 -284.08,298.71C-286.99,317.39 -288.11,336.49 -288.11,355.91C-288.11,372.8 -287,389.44 -285,405.78L-285,406.76C-285,406.92 -284.95,407.06 -284.93,407.22C-284.91,406.64 -284.82,406.05 -284.49,405.47C-284.47,405.45 -284.455,405.43 -284.445,405.41C-284.325,405.22 -284.18,405.03 -284,404.84L-284,404.8L-20,379.75L-19.86,379.74L-20,379.76L-20,379.78L-19.8,379.94L-1,378.11L-0.988,378.068Z" style="fill:rgb(51,51,51);fill-rule:nonzero;"/>
        </g>
        <g transform="matrix(1,0,0,1,1421.89,648.533)">
            <path d="M0,303.54C0,310.88 -0.2,318.17 -0.59,325.41L-0.6,325.37L-264.89,350.43L-264.89,350.47C-265.62,351.25 -265.87,352.06 -265.89,352.85C-265.95,352.38 -266.01,351.9 -266.07,351.42L-266.11,351.47L-266.12,351.47L-536.07,376.47L-536.08,376.47L-536.12,376.48L-539.65,377.01L-539.94,377.19L-790.91,401.47C-798.78,370.13 -802.95,337.32 -802.95,303.54C-802.95,217.95 -776.17,138.62 -730.52,73.47C-712.13,47.2 -690.67,23.24 -666.66,2.12C-625.81,-33.86 -577.58,-61.65 -524.54,-78.71C-485.76,-91.19 -444.4,-97.93 -401.47,-97.93C-338.45,-97.93 -278.81,-83.41 -225.74,-57.52C-192.98,-41.55 -162.72,-21.25 -135.7,2.64L-135.69,2.65C-111.92,23.65 -90.67,47.42 -72.43,73.47C-26.78,138.62 0,217.95 0,303.54" style="fill:rgb(51,51,51);fill-rule:nonzero;"/>
        </g>
        <g opacity="0.25">
            <g transform="matrix(0,-1,-1,0,95.307,597.378)">
                <path d="M-24.875,-24.875C-26.256,-24.875 -27.375,-13.738 -27.375,0C-27.375,13.738 -26.256,24.875 -24.875,24.875C-23.494,24.875 -22.375,13.738 -22.375,0C-22.375,-13.738 -23.494,-24.875 -24.875,-24.875" style="fill-rule:nonzero;"/>
            </g>
        </g>
        <g transform="matrix(0,-1,-1,0,95.3065,504.952)">
            <path d="M-16.766,-16.767C-26.026,-16.767 -33.533,-9.26 -33.533,0C-33.533,9.259 -26.026,16.766 -16.766,16.766C-7.506,16.766 -0,9.259 -0,0C-0,-9.26 -7.506,-16.767 -16.766,-16.767" style="fill:rgb(235,197,51);fill-rule:nonzero;"/>
        </g>
        <g transform="matrix(0,-1,-1,0,95.307,526.545)">
            <path d="M-33.533,-33.533C-52.053,-33.533 -67.066,-18.52 -67.066,0C-67.066,18.52 -52.053,33.533 -33.533,33.533C-15.013,33.533 0,18.52 0,0C0,-18.52 -15.013,-33.533 -33.533,-33.533" style="fill:rgb(235,197,51);fill-rule:nonzero;"/>
        </g>
        <g transform="matrix(0,-1,-1,0,95.3068,514.049)">
            <path d="M-25.15,-25.15C-39.04,-25.15 -50.3,-13.89 -50.3,0C-50.3,13.89 -39.04,25.15 -25.15,25.15C-11.26,25.15 0,13.89 0,0C0,-13.89 -11.26,-25.15 -25.15,-25.15" style="fill:rgb(235,197,51);fill-rule:nonzero;"/>
        </g>
        <g transform="matrix(1,0,0,1,95.3081,513.982)">
            <path d="M0,-22.675L-14.884,0L14.493,-0.604L0,-22.675Z" style="fill:rgb(235,197,51);fill-rule:nonzero;"/>
        </g>
        <g transform="matrix(1,0,0,1,99.5697,566.91)">
            <path d="M0,55.131L-8.525,55.131L-8.525,3.278C-8.525,1.468 -7.058,0 -5.247,0L-3.278,0C-1.468,0 0,1.468 0,3.278L0,55.131Z" style="fill:rgb(200,200,188);fill-rule:nonzero;"/>
        </g>
        <g opacity="0.25">
            <g transform="matrix(0,-1,-1,0,374.293,594.379)">
                <path d="M-24.875,-24.875C-26.256,-24.875 -27.375,-13.738 -27.375,0C-27.375,13.738 -26.256,24.875 -24.875,24.875C-23.494,24.875 -22.375,13.738 -22.375,0C-22.375,-13.738 -23.494,-24.875 -24.875,-24.875" style="fill-rule:nonzero;"/>
            </g>
        </g>
        <g transform="matrix(0,-1,-1,0,374.293,501.951)">
            <path d="M-16.767,-16.766C-26.027,-16.766 -33.533,-9.259 -33.533,0.001C-33.533,9.26 -26.027,16.767 -16.767,16.767C-7.507,16.767 -0,9.26 -0,0.001C-0,-9.259 -7.507,-16.766 -16.767,-16.766" style="fill:rgb(235,197,51);fill-rule:nonzero;"/>
        </g>
        <g transform="matrix(0,-1,-1,0,374.293,523.546)">
            <path d="M-33.533,-33.533C-52.053,-33.533 -67.066,-18.52 -67.066,0C-67.066,18.52 -52.053,33.533 -33.533,33.533C-15.013,33.533 0,18.52 0,0C0,-18.52 -15.013,-33.533 -33.533,-33.533" style="fill:rgb(235,197,51);fill-rule:nonzero;"/>
        </g>
        <g transform="matrix(0,-1,-1,0,374.293,511.049)">
            <path d="M-25.15,-25.15C-39.04,-25.15 -50.3,-13.89 -50.3,0C-50.3,13.89 -39.04,25.15 -25.15,25.15C-11.26,25.15 0,13.89 0,0C0,-13.89 -11.26,-25.15 -25.15,-25.15" style="fill:rgb(235,197,51);fill-rule:nonzero;"/>
        </g>
        <g transform="matrix(1,0,0,1,374.294,510.982)">
            <path d="M0,-22.675L-14.884,0L14.493,-0.604L0,-22.675Z" style="fill:rgb(235,197,51);fill-rule:nonzero;"/>
        </g>
        <g transform="matrix(1,0,0,1,378.556,563.91)">
            <path d="M0,55.131L-8.525,55.131L-8.525,3.278C-8.525,1.468 -7.058,0 -5.247,0L-3.278,0C-1.468,0 0,1.468 0,3.278L0,55.131Z" style="fill:rgb(200,200,188);fill-rule:nonzero;"/>
        </g>
        <g opacity="0.25">
            <g transform="matrix(0,-1,-1,0,923.843,579.781)">
                <path d="M-24.875,-24.875C-26.256,-24.875 -27.375,-13.738 -27.375,0C-27.375,13.738 -26.256,24.875 -24.875,24.875C-23.494,24.875 -22.375,13.738 -22.375,0C-22.375,-13.738 -23.494,-24.875 -24.875,-24.875" style="fill-rule:nonzero;"/>
            </g>
        </g>
        <g transform="matrix(0,-1,-1,0,923.843,487.355)">
            <path d="M-16.766,-16.767C-26.026,-16.767 -33.533,-9.26 -33.533,0C-33.533,9.259 -26.026,16.766 -16.766,16.766C-7.506,16.766 -0,9.259 -0,0C-0,-9.26 -7.506,-16.767 -16.766,-16.767" style="fill:rgb(235,197,51);fill-rule:nonzero;"/>
        </g>
        <g transform="matrix(0,-1,-1,0,923.843,508.948)">
            <path d="M-33.533,-33.533C-52.053,-33.533 -67.066,-18.52 -67.066,0C-67.066,18.52 -52.053,33.533 -33.533,33.533C-15.013,33.533 0,18.52 0,0C0,-18.52 -15.013,-33.533 -33.533,-33.533" style="fill:rgb(235,197,51);fill-rule:nonzero;"/>
        </g>
        <g transform="matrix(0,-1,-1,0,923.843,496.452)">
            <path d="M-25.15,-25.15C-39.04,-25.15 -50.3,-13.89 -50.3,0C-50.3,13.89 -39.04,25.15 -25.15,25.15C-11.26,25.15 0,13.89 0,0C0,-13.89 -11.26,-25.15 -25.15,-25.15" style="fill:rgb(235,197,51);fill-rule:nonzero;"/>
        </g>
        <g transform="matrix(1,0,0,1,923.844,496.385)">
            <path d="M0,-22.675L-14.884,0L14.493,-0.604L0,-22.675Z" style="fill:rgb(235,197,51);fill-rule:nonzero;"/>
        </g>
        <g transform="matrix(1,0,0,1,928.106,549.313)">
            <path d="M0,55.131L-8.525,55.131L-8.525,3.278C-8.525,1.468 -7.058,0 -5.247,0L-3.278,0C-1.468,0 0,1.468 0,3.278L0,55.131Z" style="fill:rgb(200,200,188);fill-rule:nonzero;"/>
        </g>
        <g opacity="0.25">
            <g transform="matrix(0,-1,-1,0,584.112,593.559)">
                <path d="M-24.875,-24.875C-26.256,-24.875 -27.375,-13.738 -27.375,0C-27.375,13.738 -26.256,24.875 -24.875,24.875C-23.494,24.875 -22.375,13.738 -22.375,0C-22.375,-13.738 -23.494,-24.875 -24.875,-24.875" style="fill-rule:nonzero;"/>
            </g>
        </g>
        <g transform="matrix(0,-1,-1,0,584.113,501.131)">
            <path d="M-16.767,-16.766C-26.027,-16.766 -33.533,-9.259 -33.533,0.001C-33.533,9.26 -26.027,16.767 -16.767,16.767C-7.507,16.767 -0,9.26 -0,0.001C-0,-9.259 -7.507,-16.766 -16.767,-16.766" style="fill:rgb(235,197,51);fill-rule:nonzero;"/>
        </g>
        <g transform="matrix(0,-1,-1,0,584.113,522.726)">
            <path d="M-33.533,-33.533C-52.053,-33.533 -67.066,-18.52 -67.066,0C-67.066,18.52 -52.053,33.533 -33.533,33.533C-15.013,33.533 0,18.52 0,0C0,-18.52 -15.013,-33.533 -33.533,-33.533" style="fill:rgb(235,197,51);fill-rule:nonzero;"/>
        </g>
        <g transform="matrix(0,-1,-1,0,584.112,510.23)">
            <path d="M-25.15,-25.15C-39.04,-25.15 -50.3,-13.89 -50.3,0C-50.3,13.89 -39.04,25.15 -25.15,25.15C-11.26,25.15 0,13.89 0,0C0,-13.89 -11.26,-25.15 -25.15,-25.15" style="fill:rgb(235,197,51);fill-rule:nonzero;"/>
        </g>
        <g transform="matrix(1,0,0,1,584.114,510.162)">
            <path d="M0,-22.675L-14.884,0L14.493,-0.604L0,-22.675Z" style="fill:rgb(235,197,51);fill-rule:nonzero;"/>
        </g>
        <g transform="matrix(1,0,0,1,588.375,563.091)">
            <path d="M0,55.13L-8.525,55.13L-8.525,3.277C-8.525,1.467 -7.058,0 -5.247,0L-3.278,0C-1.468,0 0,1.467 0,3.277L0,55.13Z" style="fill:rgb(200,200,188);fill-rule:nonzero;"/>
        </g>
        <g opacity="0.25">
            <g transform="matrix(0,-1,-1,0,735.089,565.935)">
                <path d="M-10.194,-10.195C-10.76,-10.195 -11.219,-5.631 -11.219,-0.001C-11.219,5.63 -10.76,10.194 -10.194,10.194C-9.628,10.194 -9.17,5.63 -9.17,-0.001C-9.17,-5.631 -9.628,-10.195 -10.194,-10.195" style="fill-rule:nonzero;"/>
            </g>
        </g>
        <g transform="matrix(0,-1,-1,0,735.089,528.056)">
            <path d="M-6.871,-6.871C-10.666,-6.871 -13.743,-3.795 -13.743,-0C-13.743,3.795 -10.666,6.871 -6.871,6.871C-3.076,6.871 -0,3.795 -0,-0C-0,-3.795 -3.076,-6.871 -6.871,-6.871" style="fill:rgb(235,197,51);fill-rule:nonzero;"/>
        </g>
        <g transform="matrix(0,-1,-1,0,735.089,536.906)">
            <path d="M-13.742,-13.743C-21.332,-13.743 -27.485,-7.59 -27.485,0C-27.485,7.59 -21.332,13.742 -13.742,13.742C-6.152,13.742 0,7.59 0,0C0,-7.59 -6.152,-13.743 -13.742,-13.743" style="fill:rgb(235,197,51);fill-rule:nonzero;"/>
        </g>
        <g transform="matrix(0,-1,-1,0,735.09,531.785)">
            <path d="M-10.307,-10.307C-15.999,-10.307 -20.614,-5.692 -20.614,-0C-20.614,5.692 -15.999,10.307 -10.307,10.307C-4.615,10.307 -0,5.692 -0,-0C-0,-5.692 -4.615,-10.307 -10.307,-10.307" style="fill:rgb(235,197,51);fill-rule:nonzero;"/>
        </g>
        <g transform="matrix(1,0,0,1,735.09,531.757)">
            <path d="M0,-9.293L-6.1,0L5.94,-0.248L0,-9.293Z" style="fill:rgb(235,197,51);fill-rule:nonzero;"/>
        </g>
        <g transform="matrix(1,0,0,1,736.837,553.448)">
            <path d="M0,22.594L-3.494,22.594L-3.494,1.747C-3.494,0.782 -2.712,0 -1.747,0C-0.782,0 0,0.782 0,1.747L0,22.594Z" style="fill:rgb(200,200,188);fill-rule:nonzero;"/>
        </g>
        <g opacity="0.25">
            <g transform="matrix(0,-1,-1,0,828.085,559.935)">
                <path d="M-10.195,-10.194C-10.761,-10.194 -11.219,-5.63 -11.219,0C-11.219,5.631 -10.761,10.195 -10.195,10.195C-9.629,10.195 -9.17,5.631 -9.17,0C-9.17,-5.63 -9.629,-10.194 -10.195,-10.194" style="fill-rule:nonzero;"/>
            </g>
        </g>
        <g transform="matrix(0,-1,-1,0,828.085,522.056)">
            <path d="M-6.871,-6.871C-10.666,-6.871 -13.743,-3.795 -13.743,-0C-13.743,3.795 -10.666,6.871 -6.871,6.871C-3.076,6.871 -0,3.795 -0,-0C-0,-3.795 -3.076,-6.871 -6.871,-6.871" style="fill:rgb(235,197,51);fill-rule:nonzero;"/>
        </g>
        <g transform="matrix(0,-1,-1,0,828.086,530.906)">
            <path d="M-13.743,-13.742C-21.333,-13.742 -27.485,-7.589 -27.485,0.001C-27.485,7.591 -21.333,13.743 -13.743,13.743C-6.153,13.743 0,7.591 0,0.001C0,-7.589 -6.153,-13.742 -13.743,-13.742" style="fill:rgb(235,197,51);fill-rule:nonzero;"/>
        </g>
        <g transform="matrix(0,-1,-1,0,828.085,525.785)">
            <path d="M-10.307,-10.307C-15.999,-10.307 -20.614,-5.692 -20.614,-0C-20.614,5.692 -15.999,10.307 -10.307,10.307C-4.615,10.307 -0,5.692 -0,-0C-0,-5.692 -4.615,-10.307 -10.307,-10.307" style="fill:rgb(235,197,51);fill-rule:nonzero;"/>
        </g>
        <g transform="matrix(1,0,0,1,828.086,525.758)">
            <path d="M0,-9.293L-6.1,0L5.94,-0.248L0,-9.293Z" style="fill:rgb(235,197,51);fill-rule:nonzero;"/>
        </g>
        <g transform="matrix(1,0,0,1,829.832,547.449)">
            <path d="M0,22.594L-3.494,22.594L-3.494,1.747C-3.494,0.782 -2.712,0 -1.747,0C-0.782,0 0,0.782 0,1.747L0,22.594Z" style="fill:rgb(200,200,188);fill-rule:nonzero;"/>
        </g>
        <g opacity="0.25">
            <g transform="matrix(0,-1,-1,0,1243.56,588.433)">
                <path d="M-10.195,-10.194C-10.761,-10.194 -11.219,-5.63 -11.219,0C-11.219,5.631 -10.761,10.195 -10.195,10.195C-9.629,10.195 -9.17,5.631 -9.17,0C-9.17,-5.63 -9.629,-10.194 -10.195,-10.194" style="fill-rule:nonzero;"/>
            </g>
        </g>
        <g transform="matrix(0,-1,-1,0,1243.56,550.555)">
            <path d="M-6.871,-6.871C-10.666,-6.871 -13.743,-3.795 -13.743,-0C-13.743,3.795 -10.666,6.871 -6.871,6.871C-3.076,6.871 -0,3.795 -0,-0C-0,-3.795 -3.076,-6.871 -6.871,-6.871" style="fill:rgb(235,197,51);fill-rule:nonzero;"/>
        </g>
        <g transform="matrix(0,-1,-1,0,1243.56,559.405)">
            <path d="M-13.742,-13.742C-21.332,-13.742 -27.485,-7.589 -27.485,0.001C-27.485,7.591 -21.332,13.742 -13.742,13.742C-6.152,13.742 0.001,7.591 0.001,0.001C0.001,-7.589 -6.152,-13.742 -13.742,-13.742" style="fill:rgb(235,197,51);fill-rule:nonzero;"/>
        </g>
        <g transform="matrix(0,-1,-1,0,1243.56,554.284)">
            <path d="M-10.307,-10.307C-15.999,-10.307 -20.614,-5.692 -20.614,-0C-20.614,5.692 -15.999,10.307 -10.307,10.307C-4.615,10.307 -0,5.692 -0,-0C-0,-5.692 -4.615,-10.307 -10.307,-10.307" style="fill:rgb(235,197,51);fill-rule:nonzero;"/>
        </g>
        <g transform="matrix(1,0,0,1,1243.56,554.256)">
            <path d="M0,-9.293L-6.1,0L5.94,-0.248L0,-9.293Z" style="fill:rgb(235,197,51);fill-rule:nonzero;"/>
        </g>
        <g transform="matrix(1,0,0,1,1245.31,575.947)">
            <path d="M0,22.594L-3.494,22.594L-3.494,1.747C-3.494,0.782 -2.712,0 -1.747,0C-0.782,0 0,0.782 0,1.747L0,22.594Z" style="fill:rgb(200,200,188);fill-rule:nonzero;"/>
        </g>
        <g opacity="0.25">
            <g transform="matrix(0,-1,-1,0,252.113,586.934)">
                <path d="M-10.194,-10.195C-10.76,-10.195 -11.219,-5.631 -11.219,-0.001C-11.219,5.63 -10.76,10.194 -10.194,10.194C-9.628,10.194 -9.17,5.63 -9.17,-0.001C-9.17,-5.631 -9.628,-10.195 -10.194,-10.195" style="fill-rule:nonzero;"/>
            </g>
        </g>
        <g transform="matrix(0,-1,-1,0,252.114,549.055)">
            <path d="M-6.871,-6.871C-10.666,-6.871 -13.743,-3.795 -13.743,-0C-13.743,3.795 -10.666,6.871 -6.871,6.871C-3.076,6.871 -0,3.795 -0,-0C-0,-3.795 -3.076,-6.871 -6.871,-6.871" style="fill:rgb(235,197,51);fill-rule:nonzero;"/>
        </g>
        <g transform="matrix(0,-1,-1,0,252.114,557.905)">
            <path d="M-13.742,-13.742C-21.332,-13.742 -27.485,-7.589 -27.485,0.001C-27.485,7.591 -21.332,13.742 -13.742,13.742C-6.152,13.742 0.001,7.591 0.001,0.001C0.001,-7.589 -6.152,-13.742 -13.742,-13.742" style="fill:rgb(235,197,51);fill-rule:nonzero;"/>
        </g>
        <g transform="matrix(0,-1,-1,0,252.114,552.784)">
            <path d="M-10.307,-10.307C-15.999,-10.307 -20.614,-5.692 -20.614,-0C-20.614,5.692 -15.999,10.307 -10.307,10.307C-4.615,10.307 -0,5.692 -0,-0C-0,-5.692 -4.615,-10.307 -10.307,-10.307" style="fill:rgb(235,197,51);fill-rule:nonzero;"/>
        </g>
        <g transform="matrix(1,0,0,1,252.114,552.756)">
            <path d="M0,-9.293L-6.1,0L5.94,-0.248L0,-9.293Z" style="fill:rgb(235,197,51);fill-rule:nonzero;"/>
        </g>
        <g transform="matrix(1,0,0,1,253.861,574.447)">
            <path d="M0,22.594L-3.494,22.594L-3.494,1.747C-3.494,0.782 -2.712,0 -1.747,0C-0.782,0 0,0.782 0,1.747L0,22.594Z" style="fill:rgb(200,200,188);fill-rule:nonzero;"/>
        </g>
        <g opacity="0.25">
            <g transform="matrix(0,-1,-1,0,206.153,648.045)">
                <path d="M-24.875,-24.875C-26.256,-24.875 -27.375,-13.738 -27.375,0C-27.375,13.738 -26.256,24.875 -24.875,24.875C-23.494,24.875 -22.375,13.738 -22.375,0C-22.375,-13.738 -23.494,-24.875 -24.875,-24.875" style="fill-rule:nonzero;"/>
            </g>
        </g>
        <g transform="matrix(0,-1,-1,0,206.152,555.784)">
            <path d="M-16.766,-16.767C-26.026,-16.767 -33.533,-9.26 -33.533,0C-33.533,9.259 -26.026,16.766 -16.766,16.766C-7.506,16.766 -0,9.259 -0,0C-0,-9.26 -7.506,-16.767 -16.766,-16.767" style="fill:rgb(214,100,34);fill-rule:nonzero;"/>
        </g>
        <g transform="matrix(0,-1,-1,0,206.153,577.378)">
            <path d="M-33.533,-33.533C-52.053,-33.533 -67.066,-18.52 -67.066,0C-67.066,18.52 -52.053,33.533 -33.533,33.533C-15.013,33.533 0,18.52 0,0C0,-18.52 -15.013,-33.533 -33.533,-33.533" style="fill:rgb(214,100,34);fill-rule:nonzero;"/>
        </g>
        <g transform="matrix(0,-1,-1,0,206.152,564.882)">
            <path d="M-25.15,-25.15C-39.04,-25.15 -50.3,-13.89 -50.3,0C-50.3,13.89 -39.04,25.15 -25.15,25.15C-11.26,25.15 0,13.89 0,0C0,-13.89 -11.26,-25.15 -25.15,-25.15" style="fill:rgb(214,100,34);fill-rule:nonzero;"/>
        </g>
        <g transform="matrix(1,0,0,1,206.154,564.815)">
            <path d="M0,-22.675L-14.884,0L14.493,-0.604L0,-22.675Z" style="fill:rgb(214,100,34);fill-rule:nonzero;"/>
        </g>
        <g transform="matrix(1,0,0,1,210.415,617.743)">
            <path d="M0,55.13L-8.525,55.13L-8.525,3.277C-8.525,1.467 -7.058,0 -5.247,0L-3.278,0C-1.468,0 0,1.467 0,3.277L0,55.13Z" style="fill:rgb(200,200,188);fill-rule:nonzero;"/>
        </g>
        <g opacity="0.25">
            <g transform="matrix(0,-1,-1,0,763.221,589.496)">
                <path d="M-10.897,-10.897C-11.502,-10.897 -11.992,-6.017 -11.992,-0C-11.992,6.018 -11.502,10.897 -10.897,10.897C-10.291,10.897 -9.801,6.018 -9.801,-0C-9.801,-6.017 -10.291,-10.897 -10.897,-10.897" style="fill-rule:nonzero;"/>
            </g>
        </g>
        <g transform="matrix(0,-1,-1,0,763.221,549.082)">
            <path d="M-7.345,-7.345C-11.401,-7.345 -14.689,-4.056 -14.689,0C-14.689,4.056 -11.401,7.345 -7.345,7.345C-3.289,7.345 -0.001,4.056 -0.001,0C-0.001,-4.056 -3.289,-7.345 -7.345,-7.345" style="fill:rgb(214,100,34);fill-rule:nonzero;"/>
        </g>
        <g transform="matrix(0,-1,-1,0,763.221,558.541)">
            <path d="M-14.689,-14.689C-22.802,-14.689 -29.378,-8.112 -29.378,0C-29.378,8.113 -22.802,14.689 -14.689,14.689C-6.576,14.689 0,8.113 0,0C0,-8.112 -6.576,-14.689 -14.689,-14.689" style="fill:rgb(214,100,34);fill-rule:nonzero;"/>
        </g>
        <g transform="matrix(0,-1,-1,0,763.221,553.067)">
            <path d="M-11.017,-11.017C-17.101,-11.017 -22.034,-6.085 -22.034,-0C-22.034,6.084 -17.101,11.017 -11.017,11.017C-4.933,11.017 -0,6.084 -0,-0C-0,-6.085 -4.933,-11.017 -11.017,-11.017" style="fill:rgb(214,100,34);fill-rule:nonzero;"/>
        </g>
        <g transform="matrix(1,0,0,1,763.221,553.038)">
            <path d="M0,-9.933L-6.52,0L6.349,-0.265L0,-9.933Z" style="fill:rgb(214,100,34);fill-rule:nonzero;"/>
        </g>
        <g transform="matrix(1,0,0,1,765.088,576.222)">
            <path d="M0,24.15L-3.734,24.15L-3.734,1.868C-3.734,0.836 -2.898,0 -1.867,0C-0.836,0 0,0.836 0,1.868L0,24.15Z" style="fill:rgb(200,200,188);fill-rule:nonzero;"/>
        </g>
        <g opacity="0.25">
            <g transform="matrix(0,-1,-1,0,500.138,546.05)">
                <path d="M-24.875,-24.875C-26.256,-24.875 -27.375,-13.738 -27.375,0C-27.375,13.738 -26.256,24.875 -24.875,24.875C-23.494,24.875 -22.375,13.738 -22.375,0C-22.375,-13.738 -23.494,-24.875 -24.875,-24.875" style="fill-rule:nonzero;"/>
            </g>
        </g>
        <g transform="matrix(0,-1,-1,0,500.137,453.789)">
            <path d="M-16.766,-16.767C-26.026,-16.767 -33.533,-9.26 -33.533,0C-33.533,9.259 -26.026,16.766 -16.766,16.766C-7.506,16.766 -0,9.259 -0,0C-0,-9.26 -7.506,-16.767 -16.766,-16.767" style="fill:rgb(214,100,34);fill-rule:nonzero;"/>
        </g>
        <g transform="matrix(0,-1,-1,0,500.138,475.383)">
            <path d="M-33.533,-33.533C-52.053,-33.533 -67.066,-18.52 -67.066,0C-67.066,18.52 -52.053,33.533 -33.533,33.533C-15.013,33.533 0,18.52 0,0C0,-18.52 -15.013,-33.533 -33.533,-33.533" style="fill:rgb(214,100,34);fill-rule:nonzero;"/>
        </g>
        <g transform="matrix(0,-1,-1,0,500.138,462.887)">
            <path d="M-25.15,-25.15C-39.04,-25.15 -50.3,-13.89 -50.3,0C-50.3,13.89 -39.04,25.15 -25.15,25.15C-11.26,25.15 0,13.89 0,0C0,-13.89 -11.26,-25.15 -25.15,-25.15" style="fill:rgb(214,100,34);fill-rule:nonzero;"/>
        </g>
        <g transform="matrix(1,0,0,1,500.139,462.82)">
            <path d="M0,-22.675L-14.884,0L14.493,-0.604L0,-22.675Z" style="fill:rgb(214,100,34);fill-rule:nonzero;"/>
        </g>
        <g transform="matrix(1,0,0,1,504.4,515.747)">
            <path d="M0,55.131L-8.525,55.131L-8.525,3.278C-8.525,1.468 -7.058,0 -5.247,0L-3.278,0C-1.468,0 0,1.468 0,3.278L0,55.131Z" style="fill:rgb(200,200,188);fill-rule:nonzero;"/>
        </g>
        <g opacity="0.25">
            <g transform="matrix(0,-1,-1,0,662.109,623.391)">
                <path d="M-24.875,-24.875C-26.256,-24.875 -27.375,-13.738 -27.375,0C-27.375,13.738 -26.256,24.875 -24.875,24.875C-23.494,24.875 -22.375,13.738 -22.375,0C-22.375,-13.738 -23.494,-24.875 -24.875,-24.875" style="fill-rule:nonzero;"/>
            </g>
        </g>
        <g transform="matrix(0,-1,-1,0,662.108,531.131)">
            <path d="M-16.766,-16.767C-26.026,-16.767 -33.533,-9.26 -33.533,0C-33.533,9.259 -26.026,16.766 -16.766,16.766C-7.506,16.766 -0,9.259 -0,0C-0,-9.26 -7.506,-16.767 -16.766,-16.767" style="fill:rgb(214,100,34);fill-rule:nonzero;"/>
        </g>
        <g transform="matrix(0,-1,-1,0,662.109,552.725)">
            <path d="M-33.533,-33.533C-52.053,-33.533 -67.066,-18.52 -67.066,0C-67.066,18.52 -52.053,33.533 -33.533,33.533C-15.013,33.533 0,18.52 0,0C0,-18.52 -15.013,-33.533 -33.533,-33.533" style="fill:rgb(214,100,34);fill-rule:nonzero;"/>
        </g>
        <g transform="matrix(0,-1,-1,0,662.108,540.228)">
            <path d="M-25.15,-25.15C-39.04,-25.15 -50.3,-13.89 -50.3,0C-50.3,13.89 -39.04,25.15 -25.15,25.15C-11.26,25.15 0,13.89 0,0C0,-13.89 -11.26,-25.15 -25.15,-25.15" style="fill:rgb(214,100,34);fill-rule:nonzero;"/>
        </g>
        <g transform="matrix(1,0,0,1,662.11,540.161)">
            <path d="M0,-22.675L-14.884,0L14.493,-0.604L0,-22.675Z" style="fill:rgb(214,100,34);fill-rule:nonzero;"/>
        </g>
        <g transform="matrix(1,0,0,1,666.371,593.09)">
            <path d="M0,55.13L-8.525,55.13L-8.525,3.277C-8.525,1.467 -7.058,0 -5.247,0L-3.278,0C-1.468,0 0,1.467 0,3.277L0,55.13Z" style="fill:rgb(200,200,188);fill-rule:nonzero;"/>
        </g>
        <g opacity="0.25">
            <g transform="matrix(0,-1,-1,0,1062.59,564.894)">
                <path d="M-24.875,-24.875C-26.256,-24.875 -27.375,-13.738 -27.375,0C-27.375,13.738 -26.256,24.875 -24.875,24.875C-23.494,24.875 -22.375,13.738 -22.375,0C-22.375,-13.738 -23.494,-24.875 -24.875,-24.875" style="fill-rule:nonzero;"/>
            </g>
        </g>
        <g transform="matrix(0,-1,-1,0,1062.59,472.633)">
            <path d="M-16.766,-16.767C-26.026,-16.767 -33.533,-9.26 -33.533,-0.001C-33.533,9.259 -26.026,16.766 -16.766,16.766C-7.506,16.766 -0,9.259 -0,-0.001C-0,-9.26 -7.506,-16.767 -16.766,-16.767" style="fill:rgb(214,100,34);fill-rule:nonzero;"/>
        </g>
        <g transform="matrix(0,-1,-1,0,1062.59,494.228)">
            <path d="M-33.533,-33.533C-52.053,-33.533 -67.066,-18.52 -67.066,0C-67.066,18.52 -52.053,33.533 -33.533,33.533C-15.013,33.533 0,18.52 0,0C0,-18.52 -15.013,-33.533 -33.533,-33.533" style="fill:rgb(214,100,34);fill-rule:nonzero;"/>
        </g>
        <g transform="matrix(0,-1,-1,0,1062.59,481.731)">
            <path d="M-25.15,-25.15C-39.04,-25.15 -50.3,-13.89 -50.3,0C-50.3,13.89 -39.04,25.15 -25.15,25.15C-11.26,25.15 0,13.89 0,0C0,-13.89 -11.26,-25.15 -25.15,-25.15" style="fill:rgb(214,100,34);fill-rule:nonzero;"/>
        </g>
        <g transform="matrix(1,0,0,1,1062.59,481.664)">
            <path d="M0,-22.675L-14.884,0L14.493,-0.604L0,-22.675Z" style="fill:rgb(214,100,34);fill-rule:nonzero;"/>
        </g>
        <g transform="matrix(1,0,0,1,1066.85,534.592)">
            <path d="M0,55.13L-8.525,55.13L-8.525,3.277C-8.525,1.467 -7.058,0 -5.247,0L-3.278,0C-1.468,0 0,1.467 0,3.277L0,55.13Z" style="fill:rgb(200,200,188);fill-rule:nonzero;"/>
        </g>
        <g opacity="0.25">
            <g transform="matrix(0,-1,-1,0,1299.58,642.89)">
                <path d="M-24.875,-24.875C-26.256,-24.875 -27.375,-13.738 -27.375,0C-27.375,13.738 -26.256,24.875 -24.875,24.875C-23.494,24.875 -22.375,13.738 -22.375,0C-22.375,-13.738 -23.494,-24.875 -24.875,-24.875" style="fill-rule:nonzero;"/>
            </g>
        </g>
        <g transform="matrix(0,-1,-1,0,1299.58,550.63)">
            <path d="M-16.766,-16.767C-26.026,-16.767 -33.533,-9.26 -33.533,-0.001C-33.533,9.259 -26.026,16.766 -16.766,16.766C-7.506,16.766 -0,9.259 -0,-0.001C-0,-9.26 -7.506,-16.767 -16.766,-16.767" style="fill:rgb(214,100,34);fill-rule:nonzero;"/>
        </g>
        <g transform="matrix(0,-1,-1,0,1299.58,572.224)">
            <path d="M-33.533,-33.533C-52.053,-33.533 -67.066,-18.52 -67.066,0C-67.066,18.52 -52.053,33.533 -33.533,33.533C-15.013,33.533 0,18.52 0,0C0,-18.52 -15.013,-33.533 -33.533,-33.533" style="fill:rgb(214,100,34);fill-rule:nonzero;"/>
        </g>
        <g transform="matrix(0,-1,-1,0,1299.58,559.727)">
            <path d="M-25.15,-25.15C-39.04,-25.15 -50.3,-13.89 -50.3,0C-50.3,13.89 -39.04,25.15 -25.15,25.15C-11.26,25.15 0,13.89 0,0C0,-13.89 -11.26,-25.15 -25.15,-25.15" style="fill:rgb(214,100,34);fill-rule:nonzero;"/>
        </g>
        <g transform="matrix(1,0,0,1,1299.58,559.66)">
            <path d="M0,-22.675L-14.884,0L14.493,-0.604L0,-22.675Z" style="fill:rgb(214,100,34);fill-rule:nonzero;"/>
        </g>
        <g transform="matrix(1,0,0,1,1303.84,612.589)">
            <path d="M0,55.13L-8.525,55.13L-8.525,3.277C-8.525,1.467 -7.058,0 -5.247,0L-3.278,0C-1.468,0 0,1.467 0,3.277L0,55.13Z" style="fill:rgb(200,200,188);fill-rule:nonzero;"/>
        </g>
        <g opacity="0.25">
            <g transform="matrix(0,-1,-1,0,1117.33,629.279)">
                <path d="M-24.875,-24.875C-26.256,-24.875 -27.375,-13.738 -27.375,0C-27.375,13.738 -26.256,24.875 -24.875,24.875C-23.494,24.875 -22.375,13.738 -22.375,0C-22.375,-13.738 -23.494,-24.875 -24.875,-24.875" style="fill-rule:nonzero;"/>
            </g>
        </g>
        <g transform="matrix(0,-1,-1,0,1117.33,536.852)">
            <path d="M-16.767,-16.767C-26.026,-16.767 -33.534,-9.26 -33.534,-0.001C-33.534,9.259 -26.026,16.767 -16.767,16.767C-7.507,16.767 0,9.259 0,-0.001C0,-9.26 -7.507,-16.767 -16.767,-16.767" style="fill:rgb(235,197,51);fill-rule:nonzero;"/>
        </g>
        <g transform="matrix(0,-1,-1,0,1117.33,558.446)">
            <path d="M-33.533,-33.533C-52.053,-33.533 -67.066,-18.52 -67.066,0C-67.066,18.52 -52.053,33.533 -33.533,33.533C-15.013,33.533 0,18.52 0,0C0,-18.52 -15.013,-33.533 -33.533,-33.533" style="fill:rgb(235,197,51);fill-rule:nonzero;"/>
        </g>
        <g transform="matrix(0,-1,-1,0,1117.33,545.95)">
            <path d="M-25.15,-25.15C-39.04,-25.15 -50.3,-13.89 -50.3,0C-50.3,13.89 -39.04,25.15 -25.15,25.15C-11.26,25.15 0,13.89 0,0C0,-13.89 -11.26,-25.15 -25.15,-25.15" style="fill:rgb(235,197,51);fill-rule:nonzero;"/>
        </g>
        <g transform="matrix(1,0,0,1,1117.33,545.883)">
            <path d="M0,-22.675L-14.884,0L14.493,-0.604L0,-22.675Z" style="fill:rgb(235,197,51);fill-rule:nonzero;"/>
        </g>
        <g transform="matrix(1,0,0,1,1121.6,598.81)">
            <path d="M0,55.131L-8.525,55.131L-8.525,3.278C-8.525,1.468 -7.058,0 -5.247,0L-3.278,0C-1.468,0 0,1.468 0,3.278L0,55.131Z" style="fill:rgb(200,200,188);fill-rule:nonzero;"/>
        </g>
        <g opacity="0.25">
            <g transform="matrix(0,-1,-1,0,1401.29,612.78)">
                <path d="M-24.875,-24.875C-26.256,-24.875 -27.375,-13.738 -27.375,0C-27.375,13.738 -26.256,24.875 -24.875,24.875C-23.494,24.875 -22.375,13.738 -22.375,0C-22.375,-13.738 -23.494,-24.875 -24.875,-24.875" style="fill-rule:nonzero;"/>
            </g>
        </g>
        <g transform="matrix(0,-1,-1,0,1401.29,520.353)">
            <path d="M-16.766,-16.767C-26.026,-16.767 -33.533,-9.26 -33.533,0C-33.533,9.259 -26.026,16.766 -16.766,16.766C-7.506,16.766 -0,9.259 -0,0C-0,-9.26 -7.506,-16.767 -16.766,-16.767" style="fill:rgb(235,197,51);fill-rule:nonzero;"/>
        </g>
        <g transform="matrix(0,-1,-1,0,1401.29,541.947)">
            <path d="M-33.533,-33.533C-52.053,-33.533 -67.066,-18.52 -67.066,0C-67.066,18.52 -52.053,33.533 -33.533,33.533C-15.013,33.533 0,18.52 0,0C0,-18.52 -15.013,-33.533 -33.533,-33.533" style="fill:rgb(235,197,51);fill-rule:nonzero;"/>
        </g>
        <g transform="matrix(0,-1,-1,0,1401.29,529.45)">
            <path d="M-25.15,-25.15C-39.04,-25.15 -50.3,-13.89 -50.3,0C-50.3,13.89 -39.04,25.15 -25.15,25.15C-11.26,25.15 0,13.89 0,0C0,-13.89 -11.26,-25.15 -25.15,-25.15" style="fill:rgb(235,197,51);fill-rule:nonzero;"/>
        </g>
        <g transform="matrix(1,0,0,1,1401.29,529.383)">
            <path d="M0,-22.675L-14.884,0L14.493,-0.604L0,-22.675Z" style="fill:rgb(235,197,51);fill-rule:nonzero;"/>
        </g>
        <g transform="matrix(1,0,0,1,1405.56,582.312)">
            <path d="M0,55.13L-8.525,55.13L-8.525,3.277C-8.525,1.467 -7.058,0 -5.247,0L-3.278,0C-1.468,0 0,1.467 0,3.277L0,55.13Z" style="fill:rgb(200,200,188);fill-rule:nonzero;"/>
        </g>
    </g>
</svg>
