<?xml version="1.0" encoding="UTF-8" standalone="no"?>
<!DOCTYPE svg PUBLIC "-//W3C//DTD SVG 1.1//EN" "http://www.w3.org/Graphics/SVG/1.1/DTD/svg11.dtd">
<svg width="100%" height="100%" viewBox="0 0 512 512" version="1.1" xmlns="http://www.w3.org/2000/svg" xmlns:xlink="http://www.w3.org/1999/xlink" xml:space="preserve" xmlns:serif="http://www.serif.com/" style="fill-rule:evenodd;clip-rule:evenodd;stroke-linejoin:round;stroke-miterlimit:2;">
    <g transform="matrix(1.03063,0,0,1.03889,-15.8146,6.312)">
        <path d="M172.58,377.494L161.024,377.494C101.84,377.494 57.094,327.584 52.199,271.112C48.831,232.264 47.94,194.997 52.419,155.387C59.868,89.514 92.653,54.402 161.024,46.863C224.89,39.821 293.518,39.862 364.461,46.863C432.396,53.568 464.894,89.912 474.082,155.613C479.32,193.073 479.846,231.705 473.286,271.506C462.462,337.18 426.429,376.705 363.268,377.494L344.499,377.494C308.354,378.262 287.223,387.695 287.223,415.785C287.223,428.645 276.698,439.086 263.735,439.086C250.772,439.086 240.248,428.645 240.248,415.785C240.248,385.824 217.702,377.494 172.58,377.494ZM371.91,176.571C371.91,168.007 364.901,161.054 356.268,161.054L171.202,161.054C162.569,161.054 155.561,168.007 155.561,176.571C155.561,185.135 162.569,192.089 171.202,192.089L356.268,192.089C364.901,192.089 371.91,185.135 371.91,176.571ZM372.575,242.52C372.575,233.956 365.566,227.003 356.933,227.003L171.867,227.003C163.234,227.003 156.225,233.956 156.225,242.52C156.225,251.084 163.234,258.038 171.867,258.038L356.933,258.038C365.566,258.038 372.575,251.084 372.575,242.52Z" style="fill:url(#_Linear1);"/>
    </g>
    <defs>
        <linearGradient id="_Linear1" x1="0" y1="0" x2="1" y2="0" gradientUnits="userSpaceOnUse" gradientTransform="matrix(340.194,283.636,-285.908,337.491,91.2755,71.921)"><stop offset="0" style="stop-color:rgb(235,197,51);stop-opacity:1"/><stop offset="1" style="stop-color:rgb(214,100,34);stop-opacity:1"/></linearGradient>
    </defs>
</svg>
