<?xml version="1.0" encoding="UTF-8" standalone="no"?>
<!DOCTYPE svg PUBLIC "-//W3C//DTD SVG 1.1//EN" "http://www.w3.org/Graphics/SVG/1.1/DTD/svg11.dtd">
<svg width="100%" height="100%" viewBox="0 0 512 512" version="1.1" xmlns="http://www.w3.org/2000/svg" xmlns:xlink="http://www.w3.org/1999/xlink" xml:space="preserve" xmlns:serif="http://www.serif.com/" style="fill-rule:evenodd;clip-rule:evenodd;stroke-linejoin:round;stroke-miterlimit:2;">
    <g transform="matrix(1.02982,0,0,1.19016,-15.6009,2.73053)">
        <path d="M474.082,155.613C479.32,193.073 479.846,231.705 473.286,271.506C462.462,337.18 426.957,369.824 363.268,377.494C294.377,385.791 226.826,386.559 161.024,377.494C102.991,369.5 57.094,327.584 52.199,271.112C48.831,232.264 47.94,194.997 52.419,155.387C59.868,89.514 92.653,54.402 161.024,46.863C224.89,39.821 293.518,39.862 364.461,46.863C432.396,53.568 464.894,89.912 474.082,155.613ZM397.618,157.638C397.618,134.803 376.193,116.264 349.803,116.264L177.667,116.264C151.277,116.264 129.852,134.803 129.852,157.638L129.852,267.967C129.852,290.802 151.277,309.341 177.667,309.341L349.803,309.341C376.193,309.341 397.618,290.802 397.618,267.967L397.618,157.638ZM376.367,157.638L376.367,267.967C376.367,280.653 364.464,290.953 349.803,290.953L177.667,290.953C163.006,290.953 151.103,280.653 151.103,267.967L151.103,157.638C151.103,144.952 163.006,134.652 177.667,134.652L349.803,134.652C364.464,134.652 376.367,144.952 376.367,157.638ZM263.735,153.041C225.616,153.041 194.668,179.819 194.668,212.802C194.668,245.786 225.616,272.564 263.735,272.564C301.854,272.564 332.802,245.786 332.802,212.802C332.802,179.819 301.854,153.041 263.735,153.041ZM263.735,171.429C290.125,171.429 311.55,189.968 311.55,212.802C311.55,235.637 290.125,254.176 263.735,254.176C237.345,254.176 215.92,235.637 215.92,212.802C215.92,189.968 237.345,171.429 263.735,171.429ZM263.735,185.22C246.142,185.22 231.858,197.579 231.858,212.802C231.858,228.026 246.142,240.385 263.735,240.385C281.328,240.385 295.612,228.026 295.612,212.802C295.612,197.579 281.328,185.22 263.735,185.22ZM342.365,146.605C335.327,146.605 329.614,151.548 329.614,157.638C329.614,163.727 335.327,168.671 342.365,168.671C349.402,168.671 355.115,163.727 355.115,157.638C355.115,151.548 349.402,146.605 342.365,146.605Z" style="fill:url(#_Linear1);"/>
    </g>
    <defs>
        <linearGradient id="_Linear1" x1="0" y1="0" x2="1" y2="0" gradientUnits="userSpaceOnUse" gradientTransform="matrix(348.239,273.521,-316.107,301.324,88.5227,75.8472)"><stop offset="0" style="stop-color:rgb(235,197,51);stop-opacity:1"/><stop offset="1" style="stop-color:rgb(214,100,34);stop-opacity:1"/></linearGradient>
    </defs>
</svg>
