<?xml version="1.0" encoding="UTF-8" standalone="no"?>
<!DOCTYPE svg PUBLIC "-//W3C//DTD SVG 1.1//EN" "http://www.w3.org/Graphics/SVG/1.1/DTD/svg11.dtd">
<svg width="100%" height="100%" viewBox="0 0 166 246" version="1.1" xmlns="http://www.w3.org/2000/svg" xmlns:xlink="http://www.w3.org/1999/xlink" xml:space="preserve" xmlns:serif="http://www.serif.com/" style="fill-rule:evenodd;clip-rule:evenodd;stroke-linejoin:round;stroke-miterlimit:2;">
    <path d="M89.145,216.543L108.442,234.232L165.369,177.627L89.145,216.543Z" style="fill:rgb(199,199,187);"/>
    <g transform="matrix(1,0,0,1,-0.969076,-0.646051)">
        <path d="M86.462,237.54C88.601,237.54 90.338,239.229 90.338,241.309C90.338,243.389 86.493,246.616 86.493,246.616C86.493,246.616 82.585,243.389 82.585,241.309C82.585,239.229 84.322,237.54 86.462,237.54Z" style="fill:rgb(199,199,187);"/>
    </g>
    <path d="M31.575,243.238C31.575,243.238 1.404,222.999 0.7,178.592C0.056,138.068 35.535,93.921 84.964,96.257C166.085,100.093 166.334,178.592 166.334,178.592C122.655,204.277 77.827,226.129 31.575,243.238Z" style="fill:rgb(51,51,51);"/>
    <g transform="matrix(0,-0.503077,-0.503077,0,105.969,104.034)">
        <path d="M-24.875,-24.875C-26.256,-24.875 -27.375,-13.738 -27.375,0C-27.375,13.738 -26.256,24.875 -24.875,24.875C-23.494,24.875 -22.375,13.738 -22.375,0C-22.375,-13.738 -23.494,-24.875 -24.875,-24.875" style="fill-rule:nonzero;"/>
    </g>
    <g transform="matrix(0,-0.503077,-0.503077,0,105.968,57.6193)">
        <path d="M-16.766,-16.767C-26.026,-16.767 -33.533,-9.26 -33.533,0C-33.533,9.259 -26.026,16.766 -16.766,16.766C-7.506,16.766 -0,9.259 -0,0C-0,-9.26 -7.506,-16.767 -16.766,-16.767" style="fill:rgb(214,100,34);fill-rule:nonzero;"/>
    </g>
    <g transform="matrix(0,-0.503077,-0.503077,0,105.969,68.4827)">
        <path d="M-33.533,-33.533C-52.053,-33.533 -67.066,-18.52 -67.066,0C-67.066,18.52 -52.053,33.533 -33.533,33.533C-15.013,33.533 0,18.52 0,0C0,-18.52 -15.013,-33.533 -33.533,-33.533" style="fill:rgb(214,100,34);fill-rule:nonzero;"/>
    </g>
    <g transform="matrix(0,-0.503077,-0.503077,0,105.968,62.1963)">
        <path d="M-25.15,-25.15C-39.04,-25.15 -50.3,-13.89 -50.3,0C-50.3,13.89 -39.04,25.15 -25.15,25.15C-11.26,25.15 0,13.89 0,0C0,-13.89 -11.26,-25.15 -25.15,-25.15" style="fill:rgb(214,100,34);fill-rule:nonzero;"/>
    </g>
    <g transform="matrix(0.503077,0,0,0.503077,105.969,62.1626)">
        <path d="M0,-22.675L-14.884,0L14.493,-0.604L0,-22.675Z" style="fill:rgb(214,100,34);fill-rule:nonzero;"/>
    </g>
    <g transform="matrix(0.503077,0,0,0.503077,108.113,88.7894)">
        <path d="M0,55.13L-8.525,55.13L-8.525,3.277C-8.525,1.467 -7.058,0 -5.247,0L-3.278,0C-1.468,0 0,1.467 0,3.277L0,55.13Z" style="fill:rgb(200,200,188);fill-rule:nonzero;"/>
    </g>
    <g transform="matrix(0,-0.996566,-0.996566,0,65.2045,105.647)">
        <path d="M-24.875,-24.875C-26.256,-24.875 -27.375,-13.738 -27.375,0C-27.375,13.738 -26.256,24.875 -24.875,24.875C-23.494,24.875 -22.375,13.738 -22.375,0C-22.375,-13.738 -23.494,-24.875 -24.875,-24.875" style="fill-rule:nonzero;"/>
    </g>
    <g transform="matrix(0,-0.996566,-0.996566,0,65.204,13.5388)">
        <path d="M-16.766,-16.767C-26.026,-16.767 -33.533,-9.26 -33.533,0C-33.533,9.259 -26.026,16.766 -16.766,16.766C-7.506,16.766 -0,9.259 -0,0C-0,-9.26 -7.506,-16.767 -16.766,-16.767" style="fill:rgb(235,197,51);fill-rule:nonzero;"/>
    </g>
    <g transform="matrix(0,-0.996566,-0.996566,0,65.2045,35.0576)">
        <path d="M-33.533,-33.533C-52.053,-33.533 -67.066,-18.52 -67.066,0C-67.066,18.52 -52.053,33.533 -33.533,33.533C-15.013,33.533 0,18.52 0,0C0,-18.52 -15.013,-33.533 -33.533,-33.533" style="fill:rgb(235,197,51);fill-rule:nonzero;"/>
    </g>
    <g transform="matrix(0,-0.996566,-0.996566,0,65.2043,22.6045)">
        <path d="M-25.15,-25.15C-39.04,-25.15 -50.3,-13.89 -50.3,0C-50.3,13.89 -39.04,25.15 -25.15,25.15C-11.26,25.15 0,13.89 0,0C0,-13.89 -11.26,-25.15 -25.15,-25.15" style="fill:rgb(235,197,51);fill-rule:nonzero;"/>
    </g>
    <g transform="matrix(0.996566,0,0,0.996566,65.2056,22.5378)">
        <path d="M0,-22.675L-14.884,0L14.493,-0.604L0,-22.675Z" style="fill:rgb(235,197,51);fill-rule:nonzero;"/>
    </g>
    <g transform="matrix(0.996566,0,0,0.996566,69.4525,75.284)">
        <path d="M0,55.131L-8.525,55.131L-8.525,3.278C-8.525,1.468 -7.058,0 -5.247,0L-3.278,0C-1.468,0 0,1.468 0,3.278L0,55.131Z" style="fill:rgb(200,200,188);fill-rule:nonzero;"/>
    </g>
</svg>
