<?xml version="1.0" encoding="UTF-8" standalone="no"?>
<!DOCTYPE svg PUBLIC "-//W3C//DTD SVG 1.1//EN" "http://www.w3.org/Graphics/SVG/1.1/DTD/svg11.dtd">
<svg width="100%" height="100%" viewBox="0 0 512 512" version="1.1" xmlns="http://www.w3.org/2000/svg" xmlns:xlink="http://www.w3.org/1999/xlink" xml:space="preserve" xmlns:serif="http://www.serif.com/" style="fill-rule:evenodd;clip-rule:evenodd;stroke-linejoin:round;stroke-miterlimit:2;">
    <g transform="matrix(1.02982,0,0,1.19016,-15.6009,2.73053)">
        <path d="M474.082,155.613C479.32,193.073 479.846,231.705 473.286,271.506C462.462,337.18 426.957,369.824 363.268,377.494C294.377,385.791 226.826,386.559 161.024,377.494C102.991,369.5 57.094,327.584 52.199,271.112C48.831,232.264 47.94,194.997 52.419,155.387C59.868,89.514 92.653,54.402 161.024,46.863C224.89,39.821 293.518,39.862 364.461,46.863C432.396,53.568 464.894,89.912 474.082,155.613ZM186.986,180.569C186.986,176.299 182.98,172.833 178.045,172.833L154.204,172.833C149.27,172.833 145.263,176.299 145.263,180.569L145.263,300.478C145.263,304.748 149.27,308.214 154.204,308.214L178.045,308.214C182.98,308.214 186.986,304.748 186.986,300.478L186.986,180.569ZM166.125,117.391C151.321,117.391 139.303,127.79 139.303,140.599C139.303,153.408 151.321,163.807 166.125,163.807C180.928,163.807 192.946,153.408 192.946,140.599C192.946,127.79 180.928,117.391 166.125,117.391ZM260.001,308.214C264.935,308.214 268.941,304.748 268.941,300.478L268.941,246.325C268.941,225.696 278.542,210.224 307.684,210.224C336.825,210.224 346.426,223.117 346.426,246.325L346.426,295.321L346.444,295.321L346.444,300.478C346.444,304.748 350.45,308.214 355.385,308.214L379.226,308.214C384.161,308.214 388.167,304.748 388.167,300.478L388.167,283.716C388.167,283.55 388.161,283.307 388.149,282.992L388.149,239.879C388.149,197.33 368.875,172.833 317.782,172.833C288.172,172.833 275.914,182.831 269.304,196.041L268.941,180.569C268.941,176.299 264.935,172.833 260.001,172.833L236.159,172.833C231.225,172.833 227.219,176.299 227.219,180.569L227.219,300.478C227.219,304.748 231.225,308.214 236.159,308.214L260.001,308.214Z" style="fill:url(#_Linear1);"/>
    </g>
    <defs>
        <linearGradient id="_Linear1" x1="0" y1="0" x2="1" y2="0" gradientUnits="userSpaceOnUse" gradientTransform="matrix(348.239,273.521,-316.107,301.324,88.5227,75.8472)"><stop offset="0" style="stop-color:rgb(235,197,51);stop-opacity:1"/><stop offset="1" style="stop-color:rgb(214,100,34);stop-opacity:1"/></linearGradient>
    </defs>
</svg>
